<svg width="101" height="18" viewBox="0 0 101 18" fill="none" xmlns="http://www.w3.org/2000/svg">
<path d="M12.6402 10.6367C12.4575 10.8137 12.3736 11.0698 12.4152 11.3209L13.0423 14.7916C13.0952 15.0858 12.9711 15.3835 12.7249 15.5535C12.4836 15.7298 12.1627 15.751 11.8995 15.6099L8.77521 13.9804C8.66657 13.9225 8.54594 13.8915 8.4225 13.888H8.23132C8.16501 13.8979 8.10012 13.919 8.04086 13.9515L4.91582 15.5888C4.76133 15.6664 4.58639 15.6939 4.41497 15.6664C3.99736 15.5873 3.71871 15.1895 3.78714 14.7698L4.41497 11.2991C4.45659 11.0458 4.37264 10.7883 4.18994 10.6084L1.64264 8.13945C1.4296 7.93276 1.35553 7.62238 1.45288 7.34232C1.54741 7.06297 1.78867 6.8591 2.08001 6.81325L5.58598 6.30464C5.85263 6.27713 6.08683 6.11488 6.20675 5.87503L7.75163 2.70767C7.78832 2.63713 7.83558 2.57223 7.89272 2.51721L7.95621 2.46783C7.98936 2.43114 8.02746 2.40081 8.06978 2.37612L8.14667 2.3479L8.2666 2.29852H8.56358C8.82882 2.32603 9.06232 2.48476 9.18436 2.72178L10.7497 5.87503C10.8626 6.10571 11.082 6.26584 11.3352 6.30464L14.8412 6.81325C15.1374 6.85558 15.3851 7.06015 15.4831 7.34232C15.5755 7.6252 15.4958 7.93559 15.2785 8.13945L12.6402 10.6367Z" fill="#F9B023"/>
<path d="M33.5704 10.6367C33.3877 10.8137 33.3038 11.0698 33.3454 11.3209L33.9725 14.7916C34.0254 15.0858 33.9013 15.3835 33.6551 15.5535C33.4138 15.7298 33.0928 15.751 32.8297 15.6099L29.7054 13.9804C29.5967 13.9225 29.4761 13.8915 29.3527 13.888H29.1615C29.0952 13.8979 29.0303 13.919 28.971 13.9515L25.846 15.5888C25.6915 15.6664 25.5166 15.6939 25.3451 15.6664C24.9275 15.5873 24.6489 15.1895 24.7173 14.7698L25.3451 11.2991C25.3868 11.0458 25.3028 10.7883 25.1201 10.6084L22.5728 8.13945C22.3598 7.93276 22.2857 7.62238 22.3831 7.34232C22.4776 7.06297 22.7188 6.8591 23.0102 6.81325L26.5162 6.30464C26.7828 6.27713 27.017 6.11488 27.1369 5.87503L28.6818 2.70767C28.7185 2.63713 28.7658 2.57223 28.8229 2.51721L28.8864 2.46783C28.9195 2.43114 28.9576 2.40081 29 2.37612L29.0768 2.3479L29.1968 2.29852H29.4938C29.759 2.32603 29.9925 2.48476 30.1145 2.72178L31.6799 5.87503C31.7927 6.10571 32.0121 6.26584 32.2654 6.30464L35.7713 6.81325C36.0676 6.85558 36.3152 7.06015 36.4133 7.34232C36.5057 7.6252 36.426 7.93559 36.2087 8.13945L33.5704 10.6367Z" fill="#F9B023"/>
<path d="M54.5006 10.6367C54.3179 10.8137 54.2339 11.0698 54.2756 11.3209L54.9027 14.7916C54.9556 15.0858 54.8314 15.3835 54.5852 15.5535C54.344 15.7298 54.023 15.751 53.7599 15.6099L50.6356 13.9804C50.5269 13.9225 50.4063 13.8915 50.2828 13.888H50.0917C50.0254 13.8979 49.9605 13.919 49.9012 13.9515L46.7762 15.5888C46.6217 15.6664 46.4467 15.6939 46.2753 15.6664C45.8577 15.5873 45.5791 15.1895 45.6475 14.7698L46.2753 11.2991C46.3169 11.0458 46.233 10.7883 46.0503 10.6084L43.503 8.13945C43.29 7.93276 43.2159 7.62238 43.3132 7.34232C43.4078 7.06297 43.649 6.8591 43.9404 6.81325L47.4463 6.30464C47.713 6.27713 47.9472 6.11488 48.0671 5.87503L49.612 2.70767C49.6487 2.63713 49.6959 2.57223 49.7531 2.51721L49.8166 2.46783C49.8497 2.43114 49.8878 2.40081 49.9301 2.37612L50.007 2.3479L50.1269 2.29852H50.4239C50.6892 2.32603 50.9227 2.48476 51.0447 2.72178L52.61 5.87503C52.7229 6.10571 52.9423 6.26584 53.1956 6.30464L56.7015 6.81325C56.9978 6.85558 57.2454 7.06015 57.3435 7.34232C57.4359 7.6252 57.3562 7.93559 57.1389 8.13945L54.5006 10.6367Z" fill="#F9B023"/>
<path d="M75.4308 10.6367C75.2481 10.8137 75.1641 11.0698 75.2057 11.3209L75.8329 14.7916C75.8858 15.0858 75.7616 15.3835 75.5154 15.5535C75.2742 15.7298 74.9532 15.751 74.6901 15.6099L71.5657 13.9804C71.4571 13.9225 71.3365 13.8915 71.213 13.888H71.0219C70.9555 13.8979 70.8906 13.919 70.8314 13.9515L67.7063 15.5888C67.5519 15.6664 67.3769 15.6939 67.2055 15.6664C66.7879 15.5873 66.5092 15.1895 66.5777 14.7698L67.2055 11.2991C67.2471 11.0458 67.1632 10.7883 66.9805 10.6084L64.4332 8.13945C64.2201 7.93276 64.1461 7.62238 64.2434 7.34232C64.3379 7.06297 64.5792 6.8591 64.8705 6.81325L68.3765 6.30464C68.6432 6.27713 68.8774 6.11488 68.9973 5.87503L70.5422 2.70767C70.5788 2.63713 70.6261 2.57223 70.6832 2.51721L70.7467 2.46783C70.7799 2.43114 70.818 2.40081 70.8603 2.37612L70.9372 2.3479L71.0571 2.29852H71.3541C71.6193 2.32603 71.8528 2.48476 71.9749 2.72178L73.5402 5.87503C73.6531 6.10571 73.8725 6.26584 74.1257 6.30464L77.6317 6.81325C77.928 6.85558 78.1756 7.06015 78.2736 7.34232C78.366 7.6252 78.2863 7.93559 78.0691 8.13945L75.4308 10.6367Z" fill="#F9B023"/>
<path d="M92.8746 2.73129L94.4452 5.88756C94.5609 6.11624 94.7817 6.27504 95.0365 6.31033L98.5643 6.82414C98.7704 6.85308 98.9574 6.96177 99.0837 7.12763C99.2085 7.29137 99.2622 7.49887 99.2318 7.70284C99.2071 7.87223 99.1274 8.02891 99.0053 8.1489L96.449 10.6269C96.262 10.7998 96.1774 11.056 96.2225 11.3066L96.8519 14.7903C96.9189 15.211 96.6402 15.6076 96.2225 15.6874C96.0504 15.7149 95.874 15.686 95.7188 15.6069L92.5719 13.9674C92.3383 13.8495 92.0624 13.8495 91.8289 13.9674L88.682 15.6069C88.2954 15.8123 87.8163 15.6726 87.6011 15.2914C87.5213 15.1397 87.4931 14.9668 87.5192 14.7981L88.1486 11.3136C88.1938 11.0638 88.1084 10.8062 87.9221 10.6333L85.3658 8.15666C85.0617 7.86305 85.0525 7.37959 85.3453 7.0754C85.3517 7.06905 85.3587 7.06199 85.3658 7.05493C85.4872 6.93142 85.6466 6.85308 85.8188 6.83261L89.3467 6.31809C89.6007 6.2821 89.8215 6.12471 89.938 5.89462L91.4521 2.73129C91.5869 2.46027 91.8663 2.29159 92.1697 2.29864H92.2642C92.5274 2.3304 92.7567 2.49344 92.8746 2.73129Z" fill="#1E222B"/>
<path d="M92.1802 13.8795C92.0436 13.8837 91.9105 13.9204 91.7907 13.9861L88.6592 15.6219C88.2761 15.8048 87.8175 15.6629 87.6027 15.2965C87.5231 15.1468 87.4943 14.9752 87.521 14.8072L88.1465 11.3301C88.1887 11.0774 88.1042 10.8204 87.9204 10.6425L85.3629 8.1665C85.0594 7.86928 85.0537 7.38143 85.351 7.07714C85.3552 7.0729 85.3587 7.06937 85.3629 7.06584C85.4841 6.94582 85.6404 6.86675 85.8088 6.84204L89.3396 6.32242C89.5953 6.28994 89.8172 6.13038 89.9299 5.89882L91.4646 2.69567C91.6104 2.43727 91.89 2.28336 92.1859 2.2996C92.1802 2.50928 92.1802 13.7369 92.1802 13.8795Z" fill="#F9B023"/>
</svg>
